<svg xmlns:dc="http://purl.org/dc/elements/1.1/" xmlns:cc="http://creativecommons.org/ns#" xmlns:rdf="http://www.w3.org/1999/02/22-rdf-syntax-ns#" xmlns:svg="http://www.w3.org/2000/svg" xmlns="http://www.w3.org/2000/svg" xmlns:sodipodi="http://sodipodi.sourceforge.net/DTD/sodipodi-0.dtd" xmlns:inkscape="http://www.inkscape.org/namespaces/inkscape" viewBox="0 0 12.7 15.875" version="1.1" x="0px" y="0px"><g transform="translate(0,-284.29999)"><path style="" d="m 6.3420645,284.82948 a 0.09119583,0.09119583 0 0 0 -0.083238,0.0858 v 2.07007 H 5.7609778 v -1.33283 a 0.09119583,0.09119583 0 0 0 -0.1820135,0 v 1.33283 h -0.04242 a 0.36937553,0.36937553 0 0 0 -0.3557132,0.27039 l -0.546981,1.96875 H 3.9597012 l -0.3231283,0.60178 -2.2169073,-0.49321 a 0.58185382,0.58185382 0 0 0 -0.252816,1.13585 l 1.8973807,0.42187 -0.3929003,0.73053 -0.7129572,0.54078 2.3161629,4.30869 h 4.1510249 l 2.3151024,-4.30869 -0.712927,-0.54078 -0.3918901,-0.73053 1.8963701,-0.42187 A 0.58184579,0.58184579 0 0 0 11.27939,289.3331 l -2.2158667,0.49321 -0.3236285,-0.60178 H 8.0657154 L 7.5182042,287.25578 A 0.36937553,0.36937553 0 0 0 7.162521,286.98539 H 7.121702 v -1.33283 a 0.09150845,0.09150845 0 0 0 -0.183014,0 v 1.33283 H 6.4408098 v -2.07007 a 0.09119583,0.09119583 0 0 0 -0.098745,-0.0858 z m -0.8054997,2.33839 H 7.162541 a 0.18698381,0.18698381 0 0 1 0.1799225,0.13701 l 0.5340351,1.91963 H 6.868346 l -0.518528,-0.39344 -0.5190882,0.39344 H 4.8236077 l 0.5330346,-1.91963 a 0.18698381,0.18698381 0 0 1 0.1799225,-0.13701 z m 0.7222415,1.96099 v 4.56719 l -2.8543599,0.77137 -1.2113459,-2.25464 z m 0.1819935,0 4.0662062,3.08392 -1.2118464,2.25464 -2.8543598,-0.77137 z m -2.3725288,0.27815 h 1.5220585 l -2.5694891,1.9491 z m 3.0404853,0 h 1.5220484 l 1.0474607,1.9491 z" fill="#ffffff" stroke="none"/></g></svg>